# Blender v3.1.2 OBJ File: 'machine.blend'
# www.blender.org
mtllib machine.mtl
o Cube
v -2.998762 -4.160630 4.800760
v -2.998762 5.839370 4.800760
v -2.998762 -4.160630 -5.199240
v -2.998762 5.839370 -5.199240
v 7.001238 -4.160630 4.800760
v 7.001238 5.839370 4.800760
v 7.001238 -4.160630 -5.199240
v 7.001238 5.839370 -5.199240
v 20.074860 -4.160630 4.800760
v 20.074860 5.839370 4.800760
v 20.074860 -4.160630 -5.199240
v 20.074860 5.839370 -5.199240
vt 0.375000 0.000000
vt 0.625000 0.000000
vt 0.625000 0.250000
vt 0.375000 0.250000
vt 0.625000 0.500000
vt 0.375000 0.500000
vt 0.625000 0.750000
vt 0.625000 0.750000
vt 0.625000 0.500000
vt 0.375000 0.750000
vt 0.625000 1.000000
vt 0.375000 1.000000
vt 0.125000 0.500000
vt 0.125000 0.750000
vt 0.875000 0.500000
vt 0.875000 0.750000
vt 1.000000 0.000000
vt 1.000000 1.000000
vt 0.000000 1.000000
vt 0.000000 0.000000
vt 0.375000 0.500000
vt 0.375000 0.750000
vn -1.0000 0.0000 0.0000
vn 0.0000 0.0000 -1.0000
vn 0.0000 1.0000 0.0000
vn 0.0000 0.0000 1.0000
vn 0.0000 -1.0000 0.0000
vn 1.0000 0.0000 0.0000
usemtl None
s off
f 1/1/1 2/2/1 4/3/1 3/4/1
f 3/4/2 4/3/2 8/5/2 7/6/2
f 8/5/3 6/7/3 10/8/3 12/9/3
f 5/10/4 6/7/4 2/11/4 1/12/4
f 3/13/5 7/6/5 5/10/5 1/14/5
f 8/5/3 4/15/3 2/16/3 6/7/3
f 11/17/6 12/18/6 10/19/6 9/20/6
f 7/6/2 8/5/2 12/9/2 11/21/2
f 6/7/4 5/10/4 9/22/4 10/8/4
f 5/10/5 7/6/5 11/21/5 9/22/5
